<svg xmlns="http://www.w3.org/2000/svg" viewBox="0 0 24 24" fill="none">
  <circle cx="12" cy="12" r="11" fill="#f7931a"/>
  <path d="M15.5 10.2c.2-1.4-0.9-2.1-2.3-2.6l.5-1.9-1.2-.3-.5 1.9c-.3-.1-.6-.1-1-.2l.5-1.9L10.3 5l-.5 1.9c-.3-.1-.5-.1-.8-.2l-1.6-.4-.3 1.3s.9.2.9.2c.5.1.6.4.5.7l-.5 2.1c0 0 .1 0 .1 0l-.1 0-.8 3c-.1.1-.2.3-.5.3 0 0-.9-.2-.9-.2L6 15l1.5.4c.3.1.5.1.8.2l-.5 2L9 17.9l.5-2c.3.1.6.1 1 .2l-.5 2 1.2.3.5-2c2 .4 3.5.2 4.1-1.6.5-1.4 0-2.2-1.1-2.8.8-.2 1.3-.7 1.5-1.7zm-2.7 3.7c-.4 1.4-2.8.7-3.6.5l.6-2.5c.8.2 3.4.6 3 2zm.4-3.8c-.3 1.3-2.4.6-3 .5l.6-2.3c.7.2 2.8.5 2.5 1.8z" fill="#fff"/>
</svg>
